<svg width="28" height="27" viewBox="0 0 28 27" fill="none" xmlns="http://www.w3.org/2000/svg">
<path d="M27.5 13.5C27.5 20.6627 21.4731 26.5 14 26.5C6.52686 26.5 0.5 20.6627 0.5 13.5C0.5 6.33728 6.52686 0.5 14 0.5C21.4731 0.5 27.5 6.33728 27.5 13.5Z" stroke="#D9D9D9"/>
<path d="M9.43466 10.3878C9.37074 9.75205 9.11151 9.25852 8.65696 8.9072C8.20242 8.55587 7.64489 8.38021 6.98438 8.38021C6.50142 8.38021 6.07884 8.47222 5.71662 8.65625C5.35795 8.84028 5.07741 9.09332 4.875 9.41536C4.67614 9.73741 4.5767 10.1034 4.5767 10.5133C4.5767 10.8562 4.64595 11.1511 4.78445 11.3978C4.92649 11.6404 5.1076 11.8433 5.32777 12.0064C5.54794 12.1653 5.77876 12.2971 6.02024 12.4016C6.26172 12.502 6.48366 12.5836 6.68608 12.6463L7.79403 12.9976C8.07813 13.0855 8.39418 13.2068 8.74219 13.3615C9.09375 13.5163 9.42933 13.7275 9.74894 13.9951C10.0721 14.2586 10.3384 14.5974 10.5479 15.0115C10.7575 15.4255 10.8622 15.9337 10.8622 16.536C10.8622 17.2303 10.7077 17.8576 10.3988 18.4181C10.0934 18.9785 9.64595 19.424 9.05646 19.7544C8.47053 20.0848 7.75852 20.25 6.92045 20.25C6.1392 20.25 5.46271 20.1015 4.89098 19.8046C4.3228 19.5076 3.87536 19.0936 3.54865 18.5624C3.2255 18.0312 3.04261 17.4143 3 16.7116H4.36364C4.39915 17.1968 4.53764 17.5983 4.77912 17.9162C5.02415 18.2299 5.3331 18.4641 5.70597 18.6188C6.08239 18.7694 6.48722 18.8447 6.92045 18.8447C7.42472 18.8447 7.87749 18.7485 8.27876 18.5561C8.68004 18.3595 8.99787 18.0877 9.23224 17.7405C9.46662 17.3892 9.58381 16.9793 9.58381 16.5109C9.58381 16.0843 9.4826 15.7371 9.28019 15.4695C9.07777 15.2018 8.81143 14.9843 8.48118 14.817C8.15092 14.6497 7.79403 14.5033 7.41051 14.3778L6.06818 13.9261C5.21591 13.6375 4.54119 13.2256 4.04403 12.6902C3.54687 12.1549 3.2983 11.4543 3.2983 10.5885C3.2983 9.86916 3.46342 9.24179 3.79368 8.70644C4.12749 8.1669 4.57493 7.74866 5.13601 7.4517C5.70064 7.15057 6.33097 7 7.02699 7C7.73011 7 8.35511 7.14848 8.90199 7.44543C9.44886 7.7382 9.8821 8.13972 10.2017 8.64998C10.5249 9.16024 10.6953 9.7395 10.7131 10.3878H9.43466Z" fill="#D9D9D9"/>
<path d="M17.4688 20.0241V7.17566H21.2827C22.0426 7.17566 22.6694 7.33041 23.163 7.63992C23.6566 7.94523 24.0241 8.3572 24.2656 8.87583C24.5071 9.39027 24.6278 9.96117 24.6278 10.5885C24.6278 11.1406 24.5444 11.5965 24.3775 11.9562C24.2141 12.3159 23.9975 12.6003 23.7276 12.8094C23.4613 13.0185 23.1719 13.1733 22.8594 13.2737V13.3991C23.1932 13.4242 23.5288 13.5623 23.8661 13.8132C24.2035 14.0642 24.4858 14.4238 24.7131 14.8923C24.9403 15.3607 25.054 15.9337 25.054 16.6113C25.054 17.2554 24.9297 17.8346 24.6811 18.3491C24.4325 18.8635 24.0401 19.2713 23.5039 19.5724C22.9677 19.8736 22.2699 20.0241 21.4105 20.0241H17.4688ZM18.7898 18.6439H21.4105C22.2734 18.6439 22.886 18.4474 23.2482 18.0542C23.614 17.6569 23.7969 17.1759 23.7969 16.6113C23.7969 16.1763 23.7028 15.7748 23.5146 15.4067C23.3264 15.0345 23.0582 14.7375 22.7102 14.5159C22.3622 14.29 21.9503 14.1771 21.4744 14.1771H18.7898V18.6439ZM18.7898 12.822H21.2401C21.6378 12.822 21.9964 12.73 22.3161 12.5459C22.6392 12.3619 22.8949 12.1026 23.0831 11.768C23.2749 11.4334 23.3707 11.0402 23.3707 10.5885C23.3707 10.0239 23.2038 9.54502 22.87 9.15187C22.5362 8.75454 22.0071 8.55587 21.2827 8.55587H18.7898V12.822Z" fill="#D9D9D9"/>
<path d="M13.9865 16.4908L13.4943 15.9187L15.5206 13.5322H10.2727V12.704H15.5206L13.4943 10.325L13.9865 9.74536L16.8501 13.1181L13.9865 16.4908Z" fill="#D9D9D9"/>
</svg>
