<svg width="29" height="27" viewBox="0 0 29 27" fill="none" xmlns="http://www.w3.org/2000/svg">
<ellipse cx="16" cy="9.5" rx="13" ry="9.5" fill="#D9D9D9"/>
<path d="M3.03575 24.0661L9.7054 14.5128L13.6021 19.1567L3.03575 24.0661Z" fill="#D9D9D9"/>
<path d="M12.5436 6.8125C12.4885 6.28472 12.2652 5.875 11.8736 5.58333C11.482 5.29167 11.0017 5.14583 10.4326 5.14583C10.0166 5.14583 9.65249 5.22222 9.34043 5.375C9.03143 5.52778 8.78974 5.73785 8.61535 6.00521C8.44403 6.27257 8.35837 6.57639 8.35837 6.91667C8.35837 7.20139 8.41802 7.44618 8.53734 7.65104C8.65972 7.85243 8.81574 8.02083 9.00543 8.15625C9.19511 8.28819 9.39397 8.39757 9.60201 8.48438C9.81004 8.56771 10.0013 8.63542 10.1756 8.6875L11.1302 8.97917C11.3749 9.05208 11.6472 9.15278 11.947 9.28125C12.2499 9.40972 12.539 9.58507 12.8144 9.80729C13.0928 10.026 13.3222 10.3073 13.5027 10.651C13.6832 10.9948 13.7735 11.4167 13.7735 11.9167C13.7735 12.4931 13.6404 13.0139 13.3742 13.4792C13.1111 13.9444 12.7256 14.3142 12.2178 14.5885C11.713 14.8628 11.0996 15 10.3776 15C9.7045 15 9.12168 14.8767 8.62912 14.6302C8.13962 14.3837 7.75414 14.0399 7.47267 13.599C7.19427 13.158 7.03671 12.6458 7 12.0625H8.1748C8.2054 12.4653 8.32471 12.7986 8.53275 13.0625C8.74385 13.3229 9.01002 13.5174 9.33125 13.6458C9.65555 13.7708 10.0043 13.8333 10.3776 13.8333C10.812 13.8333 11.2021 13.7535 11.5478 13.5938C11.8935 13.4306 12.1673 13.2049 12.3692 12.9167C12.5711 12.625 12.6721 12.2847 12.6721 11.8958C12.6721 11.5417 12.5849 11.2535 12.4105 11.0313C12.2361 10.809 12.0067 10.6285 11.7222 10.4896C11.4376 10.3507 11.1302 10.2292 10.7998 10.125L9.64331 9.75C8.90906 9.51042 8.32777 9.1684 7.89946 8.72396C7.47115 8.27951 7.25699 7.69792 7.25699 6.97917C7.25699 6.38194 7.39925 5.86111 7.68377 5.41667C7.97135 4.96875 8.35684 4.62153 8.84022 4.375C9.32666 4.125 9.8697 4 10.4693 4C11.0751 4 11.6136 4.12326 12.0847 4.36979C12.5558 4.61285 12.9291 4.94618 13.2044 5.36979C13.4828 5.7934 13.6297 6.27431 13.645 6.8125H12.5436Z" fill="white"/>
<path d="M19.4652 14.8125V4.14583H22.7509C23.4056 4.14583 23.9456 4.27431 24.3709 4.53125C24.7961 4.78472 25.1128 5.12674 25.3208 5.55729C25.5289 5.98437 25.6329 6.45833 25.6329 6.97917C25.6329 7.4375 25.561 7.81597 25.4172 8.11458C25.2765 8.41319 25.0898 8.64931 24.8573 8.82292C24.6279 8.99653 24.3785 9.125 24.1093 9.20833V9.3125C24.3969 9.33333 24.686 9.44792 24.9766 9.65625C25.2673 9.86458 25.5105 10.1632 25.7063 10.5521C25.9021 10.941 26 11.4167 26 11.9792C26 12.5139 25.8929 12.9948 25.6788 13.4219C25.4646 13.849 25.1265 14.1875 24.6646 14.4375C24.2026 14.6875 23.6014 14.8125 22.8611 14.8125H19.4652ZM20.6032 13.6667H22.8611C23.6045 13.6667 24.1322 13.5035 24.4443 13.1771C24.7594 12.8472 24.917 12.4479 24.917 11.9792C24.917 11.6181 24.8359 11.2847 24.6738 10.9792C24.5116 10.6701 24.2806 10.4236 23.9808 10.2396C23.681 10.0521 23.3261 9.95833 22.9161 9.95833H20.6032V13.6667ZM20.6032 8.83333H22.7142C23.0569 8.83333 23.3659 8.75694 23.6412 8.60417C23.9196 8.45139 24.1399 8.23611 24.302 7.95833C24.4672 7.68056 24.5499 7.35417 24.5499 6.97917C24.5499 6.51042 24.4061 6.11285 24.1185 5.78646C23.8309 5.4566 23.375 5.29167 22.7509 5.29167H20.6032V8.83333Z" fill="white"/>
<path d="M16.4651 11.8792L16.0411 11.4042L17.7868 9.42292H13.2656V8.73542H17.7868L16.0411 6.76042L16.4651 6.27917L18.9322 9.07917L16.4651 11.8792Z" fill="white"/>
</svg>
