<svg width="27" height="26" viewBox="0 0 27 26" fill="none" xmlns="http://www.w3.org/2000/svg">
<ellipse cx="13.214" cy="9.5" rx="13" ry="9.5" fill="#D9D9D9"/>
<path d="M2.24976 23.323L8.91941 13.7697L12.8161 18.4136L2.24976 23.323Z" fill="#D9D9D9"/>
<path d="M9.96007 7.30114C9.9108 6.86932 9.71097 6.53409 9.36059 6.29545C9.01021 6.05682 8.58045 5.9375 8.0713 5.9375C7.69902 5.9375 7.37328 6 7.09407 6.125C6.8176 6.25 6.60135 6.42188 6.44532 6.64063C6.29203 6.85938 6.21538 7.10795 6.21538 7.38636C6.21538 7.61932 6.26876 7.8196 6.37552 7.98722C6.48501 8.15199 6.62461 8.28977 6.79433 8.40057C6.96404 8.50852 7.14197 8.59801 7.32811 8.66903C7.51425 8.73722 7.68533 8.79261 7.84136 8.83523L8.69541 9.07386C8.9144 9.13352 9.15803 9.21591 9.42628 9.32102C9.69728 9.42614 9.95596 9.5696 10.2023 9.75142C10.4514 9.9304 10.6567 10.1605 10.8182 10.4418C10.9797 10.723 11.0605 11.0682 11.0605 11.4773C11.0605 11.9489 10.9414 12.375 10.7033 12.7557C10.4678 13.1364 10.1229 13.4389 9.66854 13.6634C9.21688 13.8878 8.66804 14 8.02203 14C7.41981 14 6.89835 13.8991 6.45764 13.6974C6.01966 13.4957 5.67476 13.2145 5.42292 12.8537C5.17382 12.4929 5.03285 12.0739 5 11.5966H6.05114C6.07851 11.9261 6.18527 12.1989 6.37141 12.4148C6.56029 12.6278 6.79843 12.7869 7.08586 12.892C7.37601 12.9943 7.68807 13.0455 8.02203 13.0455C8.41073 13.0455 8.75974 12.9801 9.06906 12.8494C9.37838 12.7159 9.62337 12.5313 9.80404 12.2955C9.9847 12.0568 10.075 11.7784 10.075 11.4602C10.075 11.1705 9.99702 10.9347 9.84099 10.7528C9.68496 10.571 9.47966 10.4233 9.22509 10.3097C8.97052 10.196 8.69541 10.0966 8.39978 10.0114L7.36507 9.70455C6.7081 9.50852 6.18801 9.22869 5.80478 8.86506C5.42155 8.50142 5.22994 8.02557 5.22994 7.4375C5.22994 6.94886 5.35722 6.52273 5.6118 6.15909C5.86911 5.79261 6.21401 5.50852 6.64651 5.30682C7.08175 5.10227 7.56763 5 8.10415 5C8.64614 5 9.12791 5.10085 9.54947 5.30256C9.97102 5.50142 10.305 5.77415 10.5513 6.12074C10.8004 6.46733 10.9318 6.8608 10.9455 7.30114H9.96007Z" fill="white"/>
<path d="M16.153 13.8466V5.11932H19.0929C19.6787 5.11932 20.1619 5.22443 20.5424 5.43466C20.9229 5.64205 21.2062 5.92188 21.3923 6.27415C21.5784 6.62358 21.6715 7.01136 21.6715 7.4375C21.6715 7.8125 21.6072 8.12216 21.4785 8.36648C21.3526 8.6108 21.1856 8.80398 20.9776 8.94602C20.7723 9.08807 20.5492 9.19318 20.3083 9.26136V9.34659C20.5656 9.36364 20.8243 9.45739 21.0844 9.62784C21.3444 9.7983 21.562 10.0426 21.7372 10.3608C21.9124 10.679 22 11.0682 22 11.5284C22 11.9659 21.9042 12.3594 21.7126 12.7088C21.521 13.0582 21.2185 13.3352 20.8051 13.5398C20.3918 13.7443 19.8539 13.8466 19.1915 13.8466H16.153ZM17.1713 12.9091H19.1915C19.8567 12.9091 20.3289 12.7756 20.6081 12.5085C20.89 12.2386 21.031 11.9119 21.031 11.5284C21.031 11.233 20.9584 10.9602 20.8134 10.7102C20.6683 10.4574 20.4616 10.2557 20.1934 10.1051C19.9251 9.95171 19.6076 9.875 19.2408 9.875H17.1713V12.9091ZM17.1713 8.95455H19.0601C19.3667 8.95455 19.6431 8.89205 19.8895 8.76705C20.1386 8.64205 20.3357 8.46591 20.4808 8.23864C20.6286 8.01136 20.7025 7.74432 20.7025 7.4375C20.7025 7.05398 20.5738 6.72869 20.3165 6.46165C20.0592 6.19176 19.6514 6.05682 19.0929 6.05682H17.1713V8.95455Z" fill="white"/>
<path d="M13.4688 11.4466L13.0894 11.058L14.6513 9.43693H10.6061V8.87443H14.6513L13.0894 7.25852L13.4688 6.86477L15.6762 9.15568L13.4688 11.4466Z" fill="white"/>
</svg>
