<!DOCTYPE svg PUBLIC "-//W3C//DTD SVG 1.1//EN" "http://www.w3.org/Graphics/SVG/1.1/DTD/svg11.dtd">

<!-- Uploaded to: SVG Repo, www.svgrepo.com, Transformed by: SVG Repo Mixer Tools -->
<svg width="256px" height="256px" viewBox="0 0 20.00 20.00" xmlns="http://www.w3.org/2000/svg" fill="none" stroke="#000000" stroke-width="0.0002">

<g id="SVGRepo_bgCarrier" stroke-width="0"/>

<g id="SVGRepo_tracerCarrier" stroke-linecap="round" stroke-linejoin="round" stroke="#CCCCCC" stroke-width="0.08"/>

<g id="SVGRepo_iconCarrier"> <path fill="#ffffff" fill-rule="evenodd" d="M19 2a1 1 0 00-1-1h-6a1 1 0 100 2h3.586l-3.793 3.793a1 1 0 001.414 1.414L17 4.414V8a1 1 0 102 0V2zM1 18a1 1 0 001 1h6a1 1 0 100-2H4.414l3.793-3.793a1 1 0 10-1.414-1.414L3 15.586V12a1 1 0 10-2 0v6z"/> </g>

</svg>