<!DOCTYPE svg PUBLIC "-//W3C//DTD SVG 1.1//EN" "http://www.w3.org/Graphics/SVG/1.1/DTD/svg11.dtd">

<!-- Uploaded to: SVG Repo, www.svgrepo.com, Transformed by: SVG Repo Mixer Tools -->
<svg width="256px" height="256px" viewBox="0 0 16.00 16.00" xmlns="http://www.w3.org/2000/svg" fill="none" stroke="#000000" stroke-width="0.0002">

<g id="SVGRepo_bgCarrier" stroke-width="0"/>

<g id="SVGRepo_tracerCarrier" stroke-linecap="round" stroke-linejoin="round" stroke="#CCCCCC" stroke-width="0.08"/>

<g id="SVGRepo_iconCarrier"> <g fill="#ffffff"> <path d="M10 4.94V2.75a.75.75 0 00-1.5 0v4c0 .414.336.75.75.75h4a.75.75 0 000-1.5h-2.19l2.72-2.72a.75.75 0 00-1.06-1.06L10 4.94zM2.75 8.5a.75.75 0 000 1.5h2.19l-2.72 2.72a.75.75 0 101.06 1.06L6 11.06v2.19a.75.75 0 001.5 0v-4a.75.75 0 00-.75-.75h-4z"/> </g> </g>

</svg>