<svg width="23" height="13" viewBox="0 0 23 13" fill="none" xmlns="http://www.w3.org/2000/svg">
<path d="M7.28692 3.81818C7.223 3.27841 6.96377 2.85937 6.50922 2.56108C6.05468 2.26278 5.49715 2.11363 4.83664 2.11363C4.35369 2.11363 3.9311 2.19176 3.56888 2.34801C3.21022 2.50426 2.92968 2.7191 2.72726 2.99254C2.5284 3.26598 2.42897 3.5767 2.42897 3.92471C2.42897 4.2159 2.49822 4.46626 2.63671 4.67578C2.77876 4.88174 2.95986 5.05397 3.18003 5.19247C3.4002 5.32741 3.63103 5.43927 3.87251 5.52805C4.11398 5.61328 4.33593 5.68252 4.53834 5.73579L5.6463 6.03409C5.93039 6.10866 6.24644 6.21164 6.59445 6.34304C6.94601 6.47443 7.2816 6.65376 7.6012 6.88103C7.92435 7.10475 8.19069 7.3924 8.40021 7.74396C8.60972 8.09552 8.71448 8.52698 8.71448 9.03835C8.71448 9.62784 8.56001 10.1605 8.25106 10.6364C7.94566 11.1122 7.49822 11.4904 6.90873 11.7709C6.32279 12.0515 5.61079 12.1918 4.77272 12.1918C3.99147 12.1918 3.31498 12.0657 2.74324 11.8136C2.17506 11.5614 1.72762 11.2099 1.40092 10.7589C1.07776 10.3079 0.894878 9.78409 0.852264 9.1875H2.2159C2.25141 9.59943 2.38991 9.94034 2.63138 10.2102C2.87641 10.4766 3.18536 10.6754 3.55823 10.8068C3.93465 10.9347 4.33948 10.9986 4.77272 10.9986C5.27698 10.9986 5.72975 10.9169 6.13103 10.7535C6.53231 10.5866 6.85013 10.3558 7.08451 10.0611C7.31888 9.76278 7.43607 9.41477 7.43607 9.01704C7.43607 8.65483 7.33486 8.36008 7.13245 8.13281C6.93003 7.90554 6.6637 7.72088 6.33344 7.57883C6.00319 7.43679 5.6463 7.3125 5.26278 7.20596L3.92045 6.82244C3.06817 6.57741 2.39346 6.22762 1.8963 5.77308C1.39914 5.31853 1.15056 4.72372 1.15056 3.98863C1.15056 3.37784 1.31569 2.84517 1.64594 2.39062C1.97975 1.93252 2.42719 1.57741 2.98827 1.32528C3.5529 1.0696 4.18323 0.941757 4.87925 0.941757C5.58238 0.941757 6.20738 1.06782 6.75425 1.31995C7.30113 1.56853 7.73437 1.90944 8.05397 2.34268C8.37712 2.77592 8.54758 3.26775 8.56533 3.81818H7.28692Z" fill="#FF0606"/>
<path d="M15.321 12V1.09091H19.1349C19.8949 1.09091 20.5217 1.2223 21.0153 1.48508C21.5089 1.74431 21.8764 2.0941 22.1179 2.53444C22.3594 2.97123 22.4801 3.45596 22.4801 3.98863C22.4801 4.45738 22.3967 4.84446 22.2297 5.14985C22.0664 5.45525 21.8498 5.69673 21.5799 5.87429C21.3136 6.05184 21.0241 6.18323 20.7116 6.26846V6.375C21.0454 6.3963 21.381 6.51349 21.7184 6.72656C22.0557 6.93963 22.3381 7.24502 22.5653 7.64275C22.7926 8.04048 22.9062 8.52698 22.9062 9.10227C22.9062 9.64914 22.782 10.141 22.5334 10.5778C22.2848 11.0146 21.8924 11.3608 21.3562 11.6165C20.8199 11.8722 20.1222 12 19.2628 12H15.321ZM16.642 10.8281H19.2628C20.1257 10.8281 20.7383 10.6612 21.1005 10.3274C21.4663 9.99005 21.6491 9.58167 21.6491 9.10227C21.6491 8.73295 21.555 8.39204 21.3668 8.07954C21.1786 7.76349 20.9105 7.51136 20.5625 7.32315C20.2145 7.13139 19.8025 7.03551 19.3267 7.03551H16.642V10.8281ZM16.642 5.88494H19.0923C19.49 5.88494 19.8487 5.80681 20.1683 5.65056C20.4915 5.49431 20.7472 5.27414 20.9354 4.99005C21.1271 4.70596 21.223 4.37216 21.223 3.98863C21.223 3.50923 21.0561 3.10262 20.7223 2.76882C20.3885 2.43146 19.8594 2.26278 19.1349 2.26278H16.642V5.88494Z" fill="#FE0707"/>
<path d="M11.8388 9L11.3466 8.5142L13.3729 6.48792H8.12499V5.7848H13.3729L11.3466 3.76491L11.8388 3.27272L14.7024 6.13636L11.8388 9Z" fill="black"/>
</svg>
